<?xml version="1.0" standalone="no"?><!DOCTYPE svg PUBLIC "-//W3C//DTD SVG 1.1//EN" "http://www.w3.org/Graphics/SVG/1.1/DTD/svg11.dtd"><svg t="1599745377472" class="icon" viewBox="0 0 1117 1024" version="1.1" xmlns="http://www.w3.org/2000/svg" p-id="1910" xmlns:xlink="http://www.w3.org/1999/xlink" width="218.1640625" height="200"><defs><style type="text/css"></style></defs><path d="M413.325498 410.158545h670.254546c6.144 0 11.170909-5.213091 11.170909-11.636363v-81.454546a11.450182 11.450182 0 0 0-11.170909-11.636363h-670.254546a11.450182 11.450182 0 0 0-11.170909 11.636363v81.454546c0 6.423273 5.026909 11.636364 11.170909 11.636363z m-11.170909 296.773819c0 6.330182 5.026909 11.636364 11.170909 11.636363h670.254546c6.144 0 11.170909-5.306182 11.170909-11.636363v-81.454546a11.450182 11.450182 0 0 0-11.170909-11.636363h-670.254546a11.450182 11.450182 0 0 0-11.170909 11.636363v81.454546zM1105.921862 0H11.172771A11.450182 11.450182 0 0 0 0.001862 11.636364V93.090909c0 6.423273 5.026909 11.636364 11.170909 11.636364h1094.749091c6.144 0 11.170909-5.213091 11.170909-11.636364V11.636364A11.450182 11.450182 0 0 0 1105.921862 0z m0 919.272727H11.172771A11.450182 11.450182 0 0 0 0.001862 930.909091v81.454545c0 6.423273 5.026909 11.636364 11.170909 11.636364h1094.749091c6.144 0 11.170909-5.213091 11.170909-11.636364V930.909091a11.450182 11.450182 0 0 0-11.170909-11.636364zM42.451316 701.253818L260.656407 522.146909a13.218909 13.218909 0 0 0 0-20.200727L42.451316 322.746182C34.352407 316.043636 22.34368 322.094545 22.34368 332.8v358.213818c0 10.798545 11.822545 16.942545 20.107636 10.24z" p-id="1911"></path></svg>